<svg xmlns="http://www.w3.org/2000/svg" width="249" height="24"><g fill="none" fill-rule="evenodd"><path fill="#075985" d="M33.01 1.128V0h-9.004v1.128c2.744 0 3.362.856 2.705 2.956l-3.555 10.97L18.286 0h-.85l-4.753 15.015-3.516-10.93c-.734-2.257-.193-2.957 3.053-2.957V0H.008v1.128c3.208 0 3.749.74 4.599 3.423L10.867 24h.812L16.47 8.947 21.34 24h.811l6.26-19.449c.85-2.645 1.392-3.423 4.6-3.423zm20.935 12.845c0 5.432-4.653 9.896-10.329 9.896-5.707 0-10.36-4.464-10.36-9.896 0-5.433 4.653-9.897 10.36-9.897 5.676 0 10.329 4.464 10.329 9.897zm-4.156 0c0-3.778-1.8-8.399-6.173-8.399-4.404 0-6.172 4.62-6.172 8.399 0 3.777 1.768 8.398 6.172 8.398 4.374 0 6.173-4.62 6.173-8.398zm18.37 1.155l3.009 3.31c2.73 3.027 3.908 3.746 5.8 3.995v.906h-6.73l-5.522-8.211h-.899v3.653c0 3.122.403 3.652 2.978 3.652v.906h-9.802v-.906c2.575 0 2.947-.53 2.947-3.652V9.165c0-3.123-.372-3.653-2.947-3.653v-.906h10.39c3.847 0 6.266 2.373 6.266 5.277 0 2.716-2.109 4.932-5.49 5.245zm-2.636-1.405c2.698 0 3.97-1.717 3.97-3.84 0-2.123-1.272-3.872-3.97-3.872h-1.706v7.712h1.706zm12.57 9.616v-.906c2.575 0 2.947-.53 2.947-3.652V9.165c0-3.123-.372-3.653-2.947-3.653v-.906H88.33c7.196 0 10.329 4.215 10.329 9.367 0 5.15-3.133 9.366-10.33 9.366H78.094zM84.917 6.01v12.395c0 3.028.403 3.528 2.978 3.528h.31c5.025 0 6.048-4.434 6.048-7.961 0-3.528-1.023-7.962-6.048-7.962h-3.288z"/><path fill="#0EA5E9" d="M178.035 3.94v6.907h-.9c-.217-2.511-1.21-5.368-4.466-5.368-1.272 0-2.513.942-2.513 2.511 0 .942.838 2.355 2.482 3.202l2.977 1.538c2.203 1.162 4.002 3.077 4.002 5.557 0 3.421-2.978 5.713-6.173 5.713-2.357 0-3.846-1.256-4.838-1.475a2.66 2.66 0 00-.9 1.475h-.9v-6.906h.931c.59 3.359 3.164 5.493 5.707 5.493 1.8 0 3.102-1.036 3.102-3.107 0-1.13-.838-2.417-2.295-3.17l-2.947-1.57c-2.636-1.35-4.218-2.826-4.218-5.933 0-2.575 2.388-4.71 5.397-4.71 1.83 0 2.853.597 3.784 1.288.372-.314.744-.785.9-1.444h.868zm16.571 0v6.907h-.9c-.216-2.511-1.209-5.368-4.466-5.368-1.271 0-2.512.942-2.512 2.511 0 .942.837 2.355 2.481 3.202l2.978 1.538c2.202 1.162 4.001 3.077 4.001 5.557 0 3.421-2.977 5.713-6.172 5.713-2.357 0-3.846-1.256-4.839-1.475a2.66 2.66 0 00-.9 1.475h-.899v-6.906h.93c.59 3.359 3.164 5.493 5.708 5.493 1.799 0 3.101-1.036 3.101-3.107 0-1.13-.837-2.417-2.295-3.17l-2.946-1.57c-2.637-1.35-4.219-2.826-4.219-5.933 0-2.575 2.389-4.71 5.397-4.71 1.83 0 2.854.597 3.784 1.288a2.68 2.68 0 00.9-1.444h.868zm-58.927.692c3.847 0 6.266 2.385 6.266 5.305 0 2.73-2.11 4.96-5.49 5.273l3.008 3.328c2.73 3.045 3.909 3.767 5.8 4.018v.91h-6.73l-5.521-8.256h-.9v3.673c0 3.14.404 3.673 2.978 3.673v.91h-9.801v-.91c2.574 0 2.946-.534 2.946-3.673V9.215c0-3.14-.372-3.673-2.946-3.673v-.91h10.39zm26.684 0l.248 4.426h-.9l-.155-.628c-.434-1.664-.744-2.386-3.598-2.386h-4.745v6.75h1.706c3.101 0 3.597-.409 3.597-3.014h.9v7.44h-.9c0-2.637-.496-3.014-3.597-3.014h-1.706v4.175c0 3.14.403 3.673 2.977 3.673h2.792c2.853 0 3.194-.722 3.598-2.386l.155-.628h.9l-.249 4.426H146.39v-.91c2.574 0 2.946-.534 2.946-3.673V9.215c0-3.14-.372-3.673-2.946-3.673v-.91h15.974zm46.147 0v.91c-2.574 0-2.977.534-2.977 3.673v9.899c.021 2.935.467 3.442 2.977 3.442v.91h-9.8v-.91c2.574 0 2.946-.534 2.946-3.673l-.001-9.899c-.02-2.935-.436-3.442-2.946-3.442v-.91h9.801zm29.236 0v.91c-2.172 0-2.76.722-1.644 2.386l3.474 5.305 3.473-5.305c1.117-1.696.776-2.386-1.674-2.386v-.91h7.506v.91c-2.575 0-3.164.722-4.467 2.762l-4.435 6.78v3.8c0 3.138.372 3.672 2.946 3.672v.91h-9.677v-.91c2.51 0 2.956-.507 2.977-3.442v-3.935l-4.497-6.875c-1.404-2.147-2.233-2.721-4.262-2.76l.222 3.514h-.931l-.155-.628c-.403-1.664-.744-2.386-3.567-2.386h-5.273v6.75h1.706c3.102 0 3.598-.409 3.598-3.014h.9v7.44h-.9c0-2.637-.496-3.014-3.598-3.014h-1.706v4.677c0 3.14.403 3.673 2.978 3.673v.91h-9.802v-.91c2.575 0 2.947-.534 2.947-3.673V9.215c0-3.14-.372-3.673-2.947-3.673v-.91h26.808zM133.818 6.044h-1.706v7.754h1.706c2.699 0 3.97-1.727 3.97-3.861 0-2.135-1.271-3.893-3.97-3.893zM115.345 0c4.791 0 7.806 2.972 7.806 6.61 0 3.637-3.015 6.57-7.806 6.57H110.9v4.576c0 3.911.502 4.576 3.71 4.576v1.134h-12.212v-1.134c3.207 0 3.671-.665 3.671-4.576V5.71c0-3.91-.464-4.576-3.671-4.576V0h12.946zm-2.319 11.42c3.362 0 4.946-2.15 4.946-4.81 0-2.66-1.584-4.85-4.946-4.85h-2.125v9.66h2.125z"/></g></svg>